# xmcd CD database file
#
# Track frame offsets:
#	150
#	14842
#	29042
#	43392
#	57347
#	70395
#	83740
#	98302
#	112282
#	128967
#	143742
#	156737
#	172337
#	186817
#	201627
#	216705
#	232132
#	245225
#	258827
#	271497
#	285262
#	299332
#	313687
#	326992
#
# Disc length: 4545 seconds
#
# Revision: 1
# Processed by: cddbd v1.5.2PL0 Copyright (c) Steve Scherf et al.
# Submitted via: FreeDB 13.2
#
DISCID=9b11bf18
DTITLE=Various Artist - Sextetos y Septetos Cubanos
DYEAR=1999
DGENRE=Latin
TTITLE0=Sexteto Boloña - Aurora en Pekin
TTITLE1=Sexteto Boloña - Flora
TTITLE2=Sexteto Boloña - Carolina Mulata
TTITLE3=Sexteto Boloña - Linda Mora
TTITLE4=Sexteto Occidente - Ley Fatal
TTITLE5=Sexteto Occidente - Miguel, los Hombres No Lloran
TTITLE6=Sexteto Occidente - Adriana
TTITLE7=Sexteto Occidente - La Sangre Llama
TTITLE8=Sexteto Habanero - Tres Lindas Cubanas
TTITLE9=Sexteto Habanero - Aquella Boca
TTITLE10=Sexteto Habanero - Se Fue
TTITLE11=Sexteto Habanero - Quisiera Ser mi Estrella
TTITLE12=Sexteto Machin - Avellana Y Mani
TTITLE13=Sexteto Machin - Me Voy a Baracoa
TTITLE14=Sexteto Machin - Reina Guajira
TTITLE15=Sexteto Machin - El Rey Manolo
TTITLE16=Septeto Gloria Matancera - Vengo Arrollando
TTITLE17=Septeto Gloria Matancera - Cara de Filo
TTITLE18=Septeto Matamoros - Retrato
TTITLE19=Septeto Matamoros - Dejame Gozar Mulata
TTITLE20=Septeto Nacional - Entre Preciosas Palmeras
TTITLE21=Septeto Nacional - Me Han Quemao
TTITLE22=Septeto Nacional - Descanso
TTITLE23=Septeto Nacional - Bardo
EXTD=
EXTT0=
EXTT1=
EXTT2=
EXTT3=
EXTT4=
EXTT5=
EXTT6=
EXTT7=
EXTT8=
EXTT9=
EXTT10=
EXTT11=
EXTT12=
EXTT13=
EXTT14=
EXTT15=
EXTT16=
EXTT17=
EXTT18=
EXTT19=
EXTT20=
EXTT21=
EXTT22=
EXTT23=
PLAYORDER=
